<svg xmlns="http://www.w3.org/2000/svg" width="1001" height="251" fill="none"><path fill="#fff" d="M83.907 23.932c-3.115-.48-3.246-.537-1.78-.76 2.809-.43 9.442.155 14.013 1.236 10.671 2.522 20.381 8.982 30.745 20.456l2.754 3.049 3.939-.63c16.595-2.652 33.477-.544 47.598 5.941 3.884 1.785 10.009 5.337 10.774 6.25.244.29.691 2.163.995 4.16 1.048 6.913.523 12.212-1.603 16.169-1.157 2.154-1.222 2.836-.444 4.68.621 1.47 2.353 2.558 4.067 2.556 3.509-.005 7.286-5.645 9.036-13.492l.695-3.117 1.377 1.55c7.554 8.51 13.486 20.114 14.506 28.373l.265 2.154-1.27-1.958c-2.185-3.369-4.38-5.662-7.192-7.512-5.068-3.334-10.426-4.469-24.618-5.212-12.817-.672-20.071-1.76-27.264-4.092-12.238-3.968-18.407-9.251-32.944-28.215-6.457-8.423-10.448-13.083-14.418-16.836-9.021-8.528-17.885-13-29.231-14.75z"/><path fill="#fff" d="M194.841 42.739c.322-5.645 1.092-9.367 2.64-12.767.613-1.346 1.187-2.448 1.275-2.448.089 0-.178.994-.592 2.208-1.125 3.3-1.31 7.812-.535 13.063.984 6.662 1.544 7.624 8.626 14.82 3.322 3.376 7.186 7.633 8.586 9.461l2.547 3.324-2.547-2.376c-3.114-2.904-10.277-8.569-11.859-9.379-1.061-.543-1.219-.533-1.873.114-.603.597-.73 1.494-.814 5.733-.13 6.606-1.036 10.847-3.222 15.087-1.182 2.293-1.368 1.804-.299-.785.799-1.932.88-2.782.874-9.178-.012-12.85-1.546-15.94-10.545-21.231-2.279-1.341-6.035-3.275-8.346-4.297-2.311-1.023-4.147-1.914-4.08-1.98.255-.253 9.03 2.294 12.562 3.645 5.254 2.01 6.121 2.27 6.76 2.027.427-.162.634-1.4.842-5.041zM89.957 64.722c-6.323-8.656-10.236-21.928-9.389-31.849l.262-3.07 1.44.261c2.703.49 7.364 2.215 9.546 3.533 5.989 3.617 8.581 8.378 11.219 20.604.773 3.581 1.787 7.634 2.253 9.006.751 2.208 3.589 7.366 5.896 10.717 1.661 2.412.557 3.556-3.116 3.226-5.61-.504-13.208-5.718-18.11-12.428zm97.214 64.423c-29.552-11.831-39.961-22.1-39.961-39.426 0-2.55.089-4.636.196-4.636.108 0 1.251.841 2.541 1.87 5.993 4.779 12.703 6.82 31.28 9.514 10.932 1.586 17.084 2.867 22.759 4.738 18.037 5.948 29.197 18.018 31.858 34.458.773 4.777.32 13.735-.934 18.457-.99 3.729-4.01 10.451-4.811 10.708-.222.072-.44-.775-.497-1.926-.304-6.173-3.442-12.183-8.711-16.685-5.991-5.119-14.04-9.194-33.72-17.072zm-20.747 4.914c-.37-2.19-1.012-4.988-1.427-6.217l-.754-2.234 1.401 1.564c1.938 2.162 3.47 4.93 4.768 8.617.99 2.814 1.102 3.65 1.094 8.222-.007 4.489-.131 5.43-1.046 7.963-1.442 3.993-3.233 6.825-6.237 9.864-5.398 5.463-12.338 8.487-22.354 9.742-1.741.218-6.815.585-11.276.815-11.242.582-18.641 1.783-25.289 4.104-.956.334-1.809.537-1.896.451-.269-.267 4.258-2.95 7.996-4.74 5.272-2.525 10.52-3.903 22.279-5.85 5.808-.962 11.806-2.129 13.33-2.593 14.384-4.385 21.778-15.701 19.411-29.708z"/><path fill="#fff" d="M179.971 157.98c-3.926-8.392-4.828-16.495-2.677-24.051.231-.807.6-1.468.823-1.468.223 0 1.149.498 2.059 1.106 1.809 1.211 5.438 3.251 15.106 8.492 12.064 6.539 18.942 11.603 23.619 17.389 4.097 5.067 6.632 10.837 7.852 17.874.691 3.986.286 13.577-.743 17.591-3.243 12.656-10.782 22.597-21.534 28.398-1.575.85-2.99 1.547-3.143 1.551-.153.003.421-1.448 1.276-3.225 3.617-7.518 4.029-14.831 1.294-22.97-1.674-4.984-5.088-11.065-11.981-21.343-8.014-11.949-9.979-15.13-11.951-19.344zM68.97 203.261c10.967-9.207 24.612-15.747 37.042-17.755 5.356-.865 14.28-.522 19.24.741 7.951 2.023 15.064 6.554 18.762 11.953 3.616 5.277 5.166 9.875 6.781 20.105.637 4.036 1.33 8.088 1.539 9.006 1.213 5.302 3.573 9.54 6.497 11.668 4.645 3.38 12.642 3.591 20.51.539 1.335-.518 2.494-.876 2.576-.795.285.282-3.677 2.919-6.472 4.307-3.76 1.867-6.75 2.589-10.724 2.589-7.206 0-13.188-3.644-18.18-11.076-.982-1.462-3.19-5.843-4.906-9.734-5.27-11.952-7.873-15.593-13.992-19.578-5.326-3.467-12.194-4.088-17.361-1.569-6.787 3.308-8.68 11.932-3.819 17.397 1.932 2.172 5.534 4.045 8.48 4.409 5.512.682 10.248-3.487 10.248-9.019 0-3.592-1.389-5.643-4.885-7.211-4.774-2.142-9.907.362-9.882 4.821.011 1.902.843 3.096 2.761 3.959 1.23.553 1.258.597.255.39-4.381-.903-5.407-6.154-1.884-9.641 4.229-4.185 12.974-2.338 15.977 3.375 1.261 2.399 1.408 7.178.308 10.063-2.462 6.459-9.64 9.855-16.921 8.007-4.958-1.258-6.976-2.621-12.953-8.742-10.386-10.638-14.419-12.699-29.392-15.023l-2.87-.445 3.266-2.741z"/><path fill="#fff" fill-rule="evenodd" d="M20.238 12.873c34.685 41.856 58.574 59.125 61.229 62.773 2.191 3.013 1.367 5.721-2.389 7.844-2.088 1.18-6.381 2.376-8.53 2.376-2.432 0-3.267-.933-3.267-.933-1.41-1.329-2.203-1.097-9.442-13.873-10.05-15.505-18.461-28.368-18.69-28.583-.531-.498-.522-.481 17.665 31.874 2.938 6.743.584 9.219.584 10.18 0 1.953-.536 2.98-2.96 5.669-4.04 4.482-5.847 9.519-7.151 19.942-1.462 11.685-5.573 19.939-16.965 34.065-6.67 8.269-7.76 9.785-9.443 13.118-2.12 4.197-2.702 6.548-2.938 11.848-.25 5.603.236 9.223 1.958 14.581 1.507 4.69 3.08 7.788 7.104 13.982 3.47 5.346 5.47 9.319 5.47 10.873 0 1.237.237 1.238 5.616.031 12.873-2.891 23.327-7.974 29.205-14.204 3.639-3.856 4.493-5.985 4.52-11.269.019-3.457-.103-4.18-1.043-6.168-1.53-3.237-4.314-5.927-10.451-10.099-8.042-5.466-11.477-9.866-12.425-15.917-.779-4.966.124-8.469 4.573-17.739 4.604-9.596 5.745-13.685 6.517-23.357.499-6.249 1.19-8.713 2.995-10.692 1.883-2.062 3.579-2.76 8.24-3.394 7.598-1.032 12.436-2.987 16.413-6.63 3.45-3.161 4.894-6.207 5.116-10.792l.168-3.476-1.928-2.235C83.007 64.574 15.562 6.51 15.132 6.51c-.091 0 2.206 2.863 5.106 6.363zm16.154 162.64c1.579-2.779.74-6.353-1.9-8.098-2.496-1.65-6.371-.873-6.371 1.276 0 .656.364 1.134 1.187 1.554 1.384.709 1.484 1.505.395 3.133-1.103 1.648-1.014 3.098.251 4.083 2.04 1.587 4.926.714 6.438-1.948zm60.32-77.889c-3.567 1.09-7.035 4.848-8.108 8.79-.655 2.404-.283 6.622.698 7.925 1.584 2.104 3.116 2.658 7.266 2.629 8.123-.056 15.185-3.52 16.006-7.851.673-3.55-2.429-8.469-6.701-10.63-2.204-1.113-6.893-1.555-9.161-.863zm9.496 7.383c1.253-1.77.705-3.682-1.426-4.976-4.057-2.463-10.193-.425-10.193 3.386 0 1.897 3.2 3.967 6.133 3.967 1.952 0 4.623-1.157 5.486-2.377z" clip-rule="evenodd"/><path fill="#fff" d="M909.862 235.836V109.553h18.226v14.321c5.022-8.183 14.693-16.553 30.873-16.553 24.178 0 41.659 19.157 41.659 48.17s-17.481 48.17-41.659 48.17c-16.552 0-26.037-8.742-30.687-16.181v48.356h-18.412zm44.822-46.868c18.04 0 26.781-15.065 26.781-33.477s-8.741-33.477-26.781-33.477c-18.041 0-27.154 15.437-27.154 33.477s9.113 33.477 27.154 33.477zm-113.531 14.693c-16.553 0-31.432-10.044-31.432-27.154 0-16.738 11.717-24.364 31.618-28.269l12.646-2.604c9.857-2.046 14.507-4.092 14.507-11.717 0-7.625-6.323-13.019-17.482-13.019-12.089 0-19.901 7.439-20.644 19.714l-18.971-1.674c1.302-19.714 17.111-31.617 39.801-31.617 23.433 0 35.894 11.345 35.894 30.688v63.42h-17.668v-10.787h-.186c-4.278 7.067-13.763 13.019-28.083 13.019zm4.835-13.205c13.019 0 23.248-8.555 23.248-23.806v-11.159c-19.342 3.162-28.455 5.765-34.035 9.299-4.278 2.604-6.695 6.323-6.695 11.345 0 8.555 7.067 14.321 17.482 14.321zm-154.62 10.975-29.2-91.875h19.529l20.086 69.371h.186l20.83-69.371h18.412l21.016 69.185h.186l20.086-69.185h19.157l-29.2 91.875h-19.342l-20.83-70.859h-.186l-21.202 70.859h-19.528zm-74.264 2.23c-22.876 0-39.615-10.601-41.661-32.548l18.227-2.231c.93 14.506 11.159 21.202 23.806 21.202 12.461 0 20.83-5.58 20.83-14.507s-8.555-10.787-20.086-13.391l-13.577-3.161c-14.879-3.534-25.108-10.601-25.108-24.736 0-15.623 15.437-26.968 37.197-26.968 21.016 0 35.336 10.601 37.754 27.712l-18.412 2.604c-1.302-10.973-9.299-16.739-20.086-16.739-10.973 0-18.041 5.394-18.041 12.461 0 6.695 4.092 9.113 15.623 11.717l13.577 3.162c19.342 4.463 29.571 10.787 29.571 25.479 0 18.413-17.11 29.944-39.614 29.944zm-75.947-2.23v-91.876h18.413v91.876h-18.413zm0-106.196v-21.76h18.413v21.76h-18.413zM438.22 201.429v-91.876h18.226v13.019h.186c5.208-7.997 15.437-15.251 29.386-15.251 20.458 0 32.547 12.275 32.547 34.593v59.515h-18.413v-51.518c0-16.552-3.719-27.153-19.156-27.153s-24.364 12.461-24.364 27.339v51.332H438.22zm-71.602 2.234c-30.501 0-49.1-17.297-49.1-49.1V73.475h19.343v79.972c0 20.644 9.671 34.035 29.757 34.035 21.76 0 29.757-13.391 29.757-34.035V73.475h19.343v81.088c0 31.803-18.599 49.1-49.1 49.1z"/></svg>