<svg xmlns="http://www.w3.org/2000/svg" width="127" height="128" fill="none"><path fill="#fff" d="M117.2 72.9c.5-2.9.7-5.9.7-8.9 0-19-9.8-35.8-24.5-45.6v54.5h23.8Zm-61 20.3c-3.1 2.7-4.6 6.2-4.8 10.5h-.1v13.5c3.8.8 7.8 1.3 11.8 1.3 21.2 0 39.6-12.1 48.7-29.8H69.7c-5.7.1-10.1 1.6-13.5 4.5Zm21.1-53.1c.4.2.7.4 1 .6V11.4c-4.8-1.4-9.8-2.1-15.1-2.1-20 0-37.5 10.8-47.1 26.9H60c6.5 0 12.3 1.3 17.3 3.9Zm.9 27c-.2-4.4-1.7-7.8-4.8-10.5-3.4-3-7.8-4.4-13.5-4.4h-8.6v25.2c.3-.2.7-.4 1-.6 5-2.6 10.8-3.9 17.3-3.9h8.6v-5.8Zm-68.3-15C9 55.9 8.6 59.9 8.6 64c0 20.4 11.2 38.1 27.7 47.5V52.1H9.9Z"/></svg>