<svg xmlns="http://www.w3.org/2000/svg" width="502" height="502" fill="none"><g clip-path="url(#a)"><path fill="#fff" stroke="#fff" stroke-linejoin="round" stroke-width="5" d="m250.324 266.702-83.935 84.699-16.786-41.941 100.721-101.625v58.867z"/><path stroke="#fff" stroke-linejoin="round" stroke-width="5" d="m82.445 266.685 83.944 84.69-16.786-41.915L48.881 207.835l33.564 58.85zm167.879.017 83.936 84.699 16.786-41.941-100.722-101.625v58.867z"/><path fill="#fff" stroke="#fff" stroke-linejoin="round" stroke-width="5" d="m418.204 266.685-83.945 84.69 16.787-41.915 100.722-101.625-33.564 58.85z"/><path stroke="#fff" stroke-linejoin="round" stroke-width="5" d="M48.88 207.826 250.325 4.576l201.444 203.25-100.723 101.627-100.722-101.626-100.72 101.625L48.881 207.826z"/><path fill="#fff" d="M131.179 503.105h10.562V460.84h31.702v42.265h10.563v-52.834h-52.827v52.834zm105.661 0h52.827v-31.702h-10.563v21.132h-31.702V460.84h42.265v-10.569H236.84v52.834zm116.223-52.834h-10.562v52.834h52.834v-10.57h-42.272v-42.264zm147.933 0h-52.834v52.834h52.834v-10.57h-31.68l31.68-31.68v-10.584zm-42.113 37.778V460.84h27.18l-27.18 27.209zM45.432 450.204l-.007-.007-.979.987L0 495.63l7.474 7.473 37.973-37.973 38.038 37.901 7.46-7.488-45.448-45.281-.065-.058z"/></g><defs><clipPath id="a"><path fill="#fff" d="M0 0h502v502H0z"/></clipPath></defs></svg>