<svg xmlns="http://www.w3.org/2000/svg" width="570" height="110" fill="none"><path fill="#fff" d="M419.4 40.5h13.8c2.1 0 3.8.6 5.1 1.8 1.3 1.2 1.9 2.8 1.9 4.7v4.2c0 2.1-.7 3.8-2.1 5.1-1.4 1.3-3.2 1.9-5.5 1.9h-10.3V69h-3V40.5h.1zm13.2 15.1c1.4 0 2.5-.4 3.3-1.2.8-.8 1.3-1.9 1.3-3.2V47c0-1.1-.4-2-1.1-2.7-.7-.7-1.7-1-3-1h-10.7v12.3h10.2zm12.1-6.9h2.9v3.1c.5-1 1.4-1.7 2.5-2.3 1.1-.6 2.2-.9 3.4-.9h1.8v2.6h-1.8c-1.7 0-3.1.6-4.2 1.6-1.1 1.1-1.6 2.6-1.6 4.4v11.7h-2.9V48.7h-.1zm15 18.6c-1.4-1.4-2.1-3.3-2.1-5.6v-5.6c0-2.3.7-4.2 2.1-5.6 1.4-1.4 3.3-2.1 5.6-2.1h3.3c2.3 0 4.2.7 5.6 2.1 1.4 1.4 2.1 3.3 2.1 5.6v5.6c0 2.3-.7 4.2-2.1 5.6-1.4 1.4-3.3 2.1-5.6 2.1h-3.3c-2.4 0-4.2-.7-5.6-2.1zm8.9-.5c1.5 0 2.6-.5 3.5-1.4.9-.9 1.3-2.2 1.3-3.7v-5.6c0-1.5-.4-2.8-1.3-3.7-.9-.9-2-1.4-3.4-1.4h-3.3c-1.4 0-2.6.5-3.4 1.4-.8.9-1.3 2.2-1.3 3.7v5.6c0 1.6.4 2.8 1.3 3.7.8.9 2 1.4 3.4 1.4h3.2zM481 48.7v-6.2h2.9v6.2h5.3v2.6H484v11.8c0 1.2.2 2.1.7 2.6.5.5 1.3.8 2.4.8h2.2v2.6h-2.2c-2.1 0-3.7-.5-4.6-1.4-.9-.9-1.4-2.4-1.4-4.6V51.3m14.2 16c-1.4-1.4-2.1-3.3-2.1-5.6v-5.6c0-2.3.7-4.2 2.1-5.6 1.4-1.4 3.3-2.1 5.6-2.1h3.3c2.3 0 4.2.7 5.6 2.1 1.4 1.4 2.1 3.3 2.1 5.6v5.6c0 2.3-.7 4.2-2.1 5.6-1.4 1.4-3.3 2.1-5.6 2.1h-3.3c-2.4 0-4.2-.7-5.6-2.1zm8.8-.5c1.5 0 2.6-.5 3.5-1.4.9-.9 1.3-2.2 1.3-3.7v-5.6c0-1.5-.4-2.8-1.3-3.7-.9-.9-2-1.4-3.4-1.4h-3.3c-1.4 0-2.6.5-3.4 1.4-.8.9-1.3 2.2-1.3 3.7v5.6c0 1.6.4 2.8 1.3 3.7.8.9 2 1.4 3.4 1.4h3.2zm14.3.6c-1.4-1.3-2-3.1-2-5.4v-5.8c0-2.3.7-4.2 2-5.6 1.4-1.4 3.1-2.1 5.3-2.1h3.3c2.1 0 3.8.6 5.1 1.7 1.3 1.2 1.9 2.7 1.9 4.6h-2.9c0-1.1-.4-2-1.1-2.7-.7-.7-1.7-1-3-1h-3.3c-1.3 0-2.4.5-3.2 1.4-.8 1-1.2 2.2-1.2 3.7V62c0 1.4.4 2.6 1.2 3.5.8.9 1.9 1.3 3.2 1.3h3.3c1.3 0 2.3-.4 3.1-1.3.8-.9 1.2-2.1 1.2-3.6h2.9c0 2.3-.7 4.1-2 5.5-1.3 1.4-3 2.1-5.1 2.1h-3.3c-2.2-.1-4-.8-5.4-2.1zm21.9-.1c-1.4-1.4-2.1-3.3-2.1-5.6v-5.6c0-2.3.7-4.2 2.1-5.6 1.4-1.4 3.3-2.1 5.6-2.1h3.3c2.3 0 4.2.7 5.6 2.1 1.4 1.4 2.1 3.3 2.1 5.6v5.6c0 2.3-.7 4.2-2.1 5.6-1.4 1.4-3.3 2.1-5.6 2.1h-3.3c-2.4 0-4.2-.7-5.6-2.1zm8.9-.5c1.5 0 2.6-.5 3.5-1.4.9-.9 1.3-2.2 1.3-3.7v-5.6c0-1.5-.4-2.8-1.3-3.7-.9-.9-2-1.4-3.4-1.4H546c-1.4 0-2.6.5-3.4 1.4-.8.9-1.3 2.2-1.3 3.7v5.6c0 1.6.4 2.8 1.3 3.7.8.9 2 1.4 3.4 1.4h3.2zm14.4 1c-.9-.9-1.3-2.3-1.3-4.3v-23h2.9v23c0 1 .2 1.8.6 2.2.4.5 1.1.7 2.1.7h1.4V69h-1.4c-2 .1-3.4-.4-4.3-1.2zm-395.4-4.3h13.5v2.9c0 4.5-1.2 8-3.6 10.7-2.3 2.6-5.3 3.8-9.1 3.8h-10.6c-3.7 0-6.6-1.3-8.8-4-2.3-2.8-3.5-6.7-3.5-11.5V44.9c0-4.9 1.2-8.7 3.6-11.5 2.3-2.7 5.3-4 9.2-4h10.4c3.6 0 6.5 1.1 8.6 3.4 2.2 2.3 3.3 5.3 3.3 9.2v3h13.1v-3c0-4.8-1.1-9.2-3.1-13-2.1-3.8-5.1-6.9-8.9-9-3.8-2.1-8.1-3.1-12.9-3.1H159c-5.1 0-9.6 1.2-13.6 3.6-3.9 2.4-7.1 5.8-9.2 10-2.1 4.2-3.2 9-3.2 14.4v20.5c0 5.4 1 10.2 3.1 14.4 2.1 4.3 5.1 7.7 9 10 3.8 2.4 8.4 3.5 13.4 3.5H169c5 0 9.6-1.1 13.5-3.4 3.9-2.3 7-5.5 9.1-9.7 2.1-4.1 3.1-8.7 3.1-13.9V51.1h-26.6v12.4h.1zm83.1-43.1c-3.9-2.3-8.5-3.5-13.6-3.5h-9.5c-5.1 0-9.7 1.2-13.6 3.5-4 2.3-7.1 5.6-9.3 9.9-2.1 4.2-3.2 9-3.2 14.4v21.1c0 5.4 1.1 10.2 3.2 14.4 2.2 4.2 5.3 7.6 9.3 9.9 3.9 2.3 8.5 3.5 13.5 3.5h9.6c5.1 0 9.6-1.2 13.6-3.5s7.1-5.7 9.3-9.9c2.1-4.1 3.2-8.9 3.2-14.3V44.6c0-5.4-1.1-10.2-3.2-14.4-2.2-4.2-5.3-7.5-9.3-9.8zm-.7 45.3c0 4.7-1.2 8.4-3.7 11.2-2.4 2.7-5.4 4-9.4 4h-9.2c-3.9 0-7-1.3-9.3-4-2.5-2.8-3.6-6.5-3.6-11.2V44.6c0-4.7 1.2-8.4 3.7-11.2 2.4-2.7 5.4-4 9.4-4h9.1c3.9 0 7 1.3 9.4 4 2.5 2.8 3.7 6.5 3.7 11.2v21.1h-.1zm79-35.8c-2.2-4.2-5.3-7.6-9.3-9.9-3.9-2.3-8.5-3.5-13.6-3.5h-9.4c-5.1 0-9.7 1.2-13.6 3.5-4 2.3-7.1 5.6-9.3 9.9-2.1 4.2-3.2 9-3.2 14.4v48.8h13.1v-2.5l.2-5.8c0-4.7 1.2-14.2 3.7-17 2.4-2.7 5.4-4 9.4-4h10.9V51.3h-11.1c-4.8 0-9.2 1-12.9 3.1V44.3c0-4.7 1.2-8.4 3.7-11.2 2.4-2.7 5.4-4 9.4-4h9c3.9 0 7 1.3 9.4 4 2.5 2.8 3.7 6.5 3.7 11.2v48.8H333V44.3c-.2-5.4-1.3-10.2-3.4-14.4zm10.8-13.4v12.6h28c-.2.3-.4.5-.5.8-2.1 4.2-3.2 9-3.2 14.4v48.8H378V44.3c0-4.7 1.2-8.4 3.7-11.2 2.3-2.6 5.2-3.8 8.8-4h11.8V16.5h-61.9zM108.7 63.9c.5-2.9.7-5.9.7-8.9 0-19-9.8-35.8-24.5-45.6v54.5h23.8zm-61 20.3c-3.1 2.7-4.6 6.2-4.8 10.5h-.1v13.5c3.8.8 7.8 1.3 11.8 1.3 21.2 0 39.6-12.1 48.7-29.8H61.1c-5.6.1-10 1.6-13.4 4.5zm21.1-53.1c.4.2.7.4 1 .6V2.4C65 1 59.9.3 54.7.3c-20 0-37.5 10.8-47.1 26.9h43.9c6.5 0 12.3 1.3 17.3 3.9zm.9 27c-.2-4.4-1.7-7.8-4.8-10.5-3.4-3-7.8-4.4-13.5-4.4h-8.6v25.2c.3-.2.7-.4 1-.6 5-2.6 10.8-3.9 17.3-3.9h8.6v-5.8zm-68.3-15C.5 46.9.1 50.9.1 55c0 20.4 11.2 38.1 27.7 47.5V43.1H1.4z"/></svg>